<svg id="Group_5" data-name="Group 5" xmlns="http://www.w3.org/2000/svg" xmlns:xlink="http://www.w3.org/1999/xlink" width="326" height="228" viewBox="0 0 326 228">
  <defs>
    <clipPath id="clip-path">
      <rect id="Mask" width="326" height="228" fill="none"/>
    </clipPath>
  </defs>
  <rect id="Mask-2" data-name="Mask" width="326" height="228" fill="none"/>
  <g id="Group_5-2" data-name="Group 5" clip-path="url(#clip-path)">
    <g id="Group_5-3" data-name="Group 5" transform="translate(27 32)">
      <path id="Stroke_1" data-name="Stroke 1" d="M209.893,114.056a63.91,63.91,0,0,0-12.012-9.365,58.34,58.34,0,0,0-17.368,11.821L151.2,145.827a19.038,19.038,0,1,1,26.925,26.924L147.115,203.76a58.17,58.17,0,0,1-14.957,10.552A58.57,58.57,0,0,1,63.95,203.76l-1.393-1.393-.156-.155a58.807,58.807,0,0,1,0-83.165l73.611-73.611c24.2-24.2,62.2-32.241,92.967-20.658a104.786,104.786,0,0,0-141.74,5.888L30.7,87.2a104.833,104.833,0,0,0,0,148.255h0a104.831,104.831,0,0,0,148.254,0l30.934-30.933a63.909,63.909,0,0,0,0-90.466Z" transform="translate(0.281 0.281)" fill="none" stroke="#6e7c7c" stroke-miterlimit="10" stroke-width="1"/>
      <path id="Stroke_3" data-name="Stroke 3" d="M198.275,30.7h0a104.833,104.833,0,0,0-148.255,0L20.78,59.945A63.743,63.743,0,0,0,33.51,160.2a58.184,58.184,0,0,0,14.957-10.552L79.475,118.64A19.039,19.039,0,0,1,52.55,91.715L81.865,62.4A58.342,58.342,0,0,1,99.233,50.58a58.969,58.969,0,0,1,46.979-.616A57.856,57.856,0,0,1,165.03,62.4l1.393,1.393.155.156a58.806,58.806,0,0,1,0,83.164L92.967,220.725c-24.2,24.2-62.2,32.241-92.967,20.658a104.786,104.786,0,0,0,141.74-5.888l56.534-56.535A104.832,104.832,0,0,0,198.275,30.7Z" transform="translate(98.929 54.392)" fill="none" stroke="#6e7c7c" stroke-miterlimit="10" stroke-width="1"/>
    </g>
  </g>
</svg>
