<svg id="Group_24" data-name="Group 24" xmlns="http://www.w3.org/2000/svg" xmlns:xlink="http://www.w3.org/1999/xlink" width="52" height="52" viewBox="0 0 52 52">
  <defs>
    <clipPath id="clip-path">
      <path id="Clip_2" data-name="Clip 2" d="M0,0H15.311V15.314H0Z" transform="translate(0 0)" fill="none"/>
    </clipPath>
  </defs>
  <g id="Oval" fill="none" stroke="#dadada" stroke-miterlimit="10" stroke-width="1">
    <circle cx="26" cy="26" r="26" stroke="none"/>
    <circle cx="26" cy="26" r="25.5" fill="none"/>
  </g>
  <g id="Group_3" data-name="Group 3" transform="translate(19.2 18.343)">
    <path id="Clip_2-2" data-name="Clip 2" d="M0,0H15.311V15.314H0Z" transform="translate(0 0)" fill="none"/>
    <g id="Group_3-2" data-name="Group 3" clip-path="url(#clip-path)">
      <path id="Fill_1" data-name="Fill 1" d="M14.322,15.314h0a.991.991,0,0,1-.7-.292l-3.313-3.314-.129.089a6.419,6.419,0,0,1-3.7,1.16,6.5,6.5,0,1,1,5.311-2.78l-.089.128,3.32,3.319a.99.99,0,0,1-.7,1.689ZM6.48,1.981a4.5,4.5,0,1,0,4.5,4.5A4.5,4.5,0,0,0,6.48,1.981Z" transform="translate(0 0)" fill="#323e48"/>
    </g>
  </g>
</svg>
