<svg xmlns="http://www.w3.org/2000/svg" xmlns:xlink="http://www.w3.org/1999/xlink" width="229.375" height="50.811" viewBox="0 0 229.375 50.811">
  <defs>
    <clipPath id="clip-path">
      <path id="Clip_3" data-name="Clip 3" d="M0,0H229.375V50.811H0Z" transform="translate(0 0.724)" fill="none"/>
    </clipPath>
  </defs>
  <g id="Group_37" data-name="Group 37" transform="translate(0 -0.904)">
    <path id="Fill_1" data-name="Fill 1" d="M4.577,13.664v9.3H0V0H16.863V4.216H4.577V9.448H16.091v4.216Z" transform="translate(54.675 9.528)" fill="#f4674d"/>
    <g id="Group_36" data-name="Group 36" transform="translate(0 0.18)">
      <path id="Clip_3-2" data-name="Clip 3" d="M0,0H229.375V50.811H0Z" transform="translate(0 0.724)" fill="none"/>
      <g id="Group_36-2" data-name="Group 36" clip-path="url(#clip-path)">
        <path id="Fill_2" data-name="Fill 2" d="M4.888,23.85H.607V7.955H4.888V23.849ZM2.723,5.478A2.663,2.663,0,0,1,0,2.756,2.711,2.711,0,0,1,2.723,0,2.718,2.718,0,0,1,5.462,2.756,2.7,2.7,0,0,1,2.723,5.478Z" transform="translate(73.86 8.463)" fill="#f4674d"/>
        <path id="Fill_4" data-name="Fill 4" d="M15.026,6.2V16.321H10.745V7.578c0-2.313-1.132-3.56-3.1-3.56A3.25,3.25,0,0,0,4.281,7.611v8.71H0V.427H4.166V2.3A5.308,5.308,0,0,1,8.841,0a5.92,5.92,0,0,1,6.184,6.2" transform="translate(82.583 15.992)" fill="#f4674d"/>
        <path id="Fill_5" data-name="Fill 5" d="M17.814,14.616V18.75h-3.2v4.2H10.186v-4.2H0V15.535L8.054,0h4.921L5.3,14.616h4.888V8.5h4.429v6.119Z" transform="translate(99.996 9.364)" fill="#f4674d"/>
        <path id="Fill_6" data-name="Fill 6" d="M7.25,11.942V24.031H2.969V11.942H0V8.136H2.969V6.168C2.969,2.444,4.954,0,8.661,0a8.472,8.472,0,0,1,4.888,1.428L11.843,4.757a5.6,5.6,0,0,0-2.723-.77c-1.247,0-1.87.738-1.87,2.23V8.136h4.937v3.805Z" transform="translate(118.754 8.282)" fill="#6e7c7c"/>
        <path id="Fill_7" data-name="Fill 7" d="M4.888,23.85H.607V7.955H4.888V23.849ZM2.723,5.478A2.663,2.663,0,0,1,0,2.756,2.71,2.71,0,0,1,2.723,0a2.719,2.719,0,0,1,2.74,2.756A2.7,2.7,0,0,1,2.723,5.478Z" transform="translate(132.988 8.463)" fill="#6e7c7c"/>
        <path id="Fill_8" data-name="Fill 8" d="M15.026,6.2V16.321H10.745V7.578c0-2.313-1.132-3.56-3.1-3.56A3.25,3.25,0,0,0,4.281,7.611v8.71H0V.427H4.166V2.3A5.308,5.308,0,0,1,8.841,0a5.92,5.92,0,0,1,6.184,6.2" transform="translate(141.71 15.992)" fill="#6e7c7c"/>
        <path id="Fill_9" data-name="Fill 9" d="M7.693,16.73C3.307,16.73,0,13.134,0,8.365S3.307,0,7.693,0a5.788,5.788,0,0,1,4.757,2.181V.426h4.182V16.321H12.451V14.566A5.822,5.822,0,0,1,7.693,16.73ZM8.481,3.985a4.108,4.108,0,0,0-4.1,4.379,4.108,4.108,0,0,0,4.1,4.379,4.063,4.063,0,0,0,4.1-4.379A4.063,4.063,0,0,0,8.481,3.985Z" transform="translate(159.451 15.992)" fill="#6e7c7c"/>
        <path id="Fill_10" data-name="Fill 10" d="M15.026,6.2V16.321H10.745V7.578c0-2.313-1.132-3.56-3.1-3.56A3.25,3.25,0,0,0,4.281,7.611v8.71H0V.427H4.166V2.3A5.308,5.308,0,0,1,8.841,0a5.92,5.92,0,0,1,6.184,6.2" transform="translate(179.915 15.992)" fill="#6e7c7c"/>
        <path id="Fill_11" data-name="Fill 11" d="M14.828,3,11.744,5.578A4.375,4.375,0,0,0,8.35,3.985a4.056,4.056,0,0,0-3.986,4.38c0,2.657,1.755,4.38,3.969,4.38a4.675,4.675,0,0,0,3.462-1.608l3.05,2.607a7.825,7.825,0,0,1-6.38,2.985A8.069,8.069,0,0,1,0,8.366,8.07,8.07,0,0,1,8.464,0a7.74,7.74,0,0,1,6.364,3" transform="translate(197.657 15.991)" fill="#6e7c7c"/>
        <path id="Fill_12" data-name="Fill 12" d="M8.251,16.731A8.187,8.187,0,0,1,2.3,14.443,8.294,8.294,0,0,1,0,8.416,8.583,8.583,0,0,1,2.235,2.338,7.8,7.8,0,0,1,8.038,0a7.379,7.379,0,0,1,5.579,2.317,8.677,8.677,0,0,1,2.147,6.032,11.934,11.934,0,0,1-.083,1.444H4.412A3.833,3.833,0,0,0,8.5,13.09a6.355,6.355,0,0,0,4.018-1.526l2.511,2.755A9.59,9.59,0,0,1,8.251,16.731ZM8,3.691c-1.943,0-3.18,1.1-3.577,3.182h7.037C11.072,4.822,9.843,3.691,8,3.691Z" transform="translate(213.611 15.991)" fill="#6e7c7c"/>
        <path id="Fill_13" data-name="Fill 13" d="M1.1,8.425H0L3.425,0H4.742L8.171,8.423H7.035l-.927-2.3H2.022l-.92,2.3ZM4.068,1.047,2.426,5.121h3.28Z" transform="translate(54.675 40.674)" fill="#f4674d"/>
        <path id="Fill_14" data-name="Fill 14" d="M5.091.9l-.632.667A2.108,2.108,0,0,0,2.943.926,1.94,1.94,0,0,0,1.005,2.978,1.944,1.944,0,0,0,2.943,5.036,2.236,2.236,0,0,0,4.484,4.38l.608.68a2.791,2.791,0,0,1-2.125.9A2.86,2.86,0,0,1,0,2.978,2.859,2.859,0,0,1,2.966,0,2.737,2.737,0,0,1,5.091.9" transform="translate(65.347 43.262)" fill="#f4674d"/>
        <path id="Fill_15" data-name="Fill 15" d="M5.091.9l-.632.667A2.109,2.109,0,0,0,2.943.926,1.94,1.94,0,0,0,1.005,2.978,1.944,1.944,0,0,0,2.943,5.036,2.236,2.236,0,0,0,4.484,4.38l.608.68a2.791,2.791,0,0,1-2.125.9A2.86,2.86,0,0,1,0,2.978,2.859,2.859,0,0,1,2.966,0,2.737,2.737,0,0,1,5.091.9" transform="translate(73.096 43.262)" fill="#f4674d"/>
        <path id="Fill_16" data-name="Fill 16" d="M3.02,5.957A2.934,2.934,0,0,1,0,2.978,2.934,2.934,0,0,1,3.02,0,2.937,2.937,0,0,1,6.048,2.978,2.938,2.938,0,0,1,3.02,5.957Zm0-5.031A1.967,1.967,0,0,0,1.005,2.978,1.97,1.97,0,0,0,3.02,5.036,1.992,1.992,0,0,0,5.036,2.978,1.968,1.968,0,0,0,3.02.926Z" transform="translate(80.845 43.262)" fill="#f4674d"/>
        <path id="Fill_17" data-name="Fill 17" d="M2.612,5.837A2.4,2.4,0,0,1,0,3.322V0H.987V3.231A1.507,1.507,0,0,0,2.612,4.916,1.506,1.506,0,0,0,4.231,3.231V0h.986V3.322A2.4,2.4,0,0,1,2.612,5.837" transform="translate(90.164 43.382)" fill="#f4674d"/>
        <path id="Fill_18" data-name="Fill 18" d="M5.229,2.287v3.55H4.242V2.606A1.478,1.478,0,0,0,2.671.931,1.626,1.626,0,0,0,.98,2.629V5.836H0V.12H.975V.866A2.245,2.245,0,0,1,2.846,0,2.217,2.217,0,0,1,5.229,2.287" transform="translate(99.087 43.262)" fill="#f4674d"/>
        <path id="Fill_19" data-name="Fill 19" d="M2.208,2.691V5.476c0,.861.457,1.233,1.077,1.233a2.123,2.123,0,0,0,1.167-.385l.464.74A2.877,2.877,0,0,1,3.2,7.631c-1.234,0-1.98-.68-1.98-2.136v-2.8H0v-.9H1.221V0h.986V1.794h2.4v.9Z" transform="translate(107.215 41.588)" fill="#f4674d"/>
        <path id="Fill_20" data-name="Fill 20" d="M2.858,5.957A2.856,2.856,0,0,1,0,2.978,2.856,2.856,0,0,1,2.858,0,2.5,2.5,0,0,1,4.874.89V.121h.987V5.837H4.874V5.072A2.534,2.534,0,0,1,2.858,5.957ZM2.973.926A1.945,1.945,0,0,0,1.005,2.978,1.948,1.948,0,0,0,2.973,5.036,1.945,1.945,0,0,0,4.935,2.978,1.943,1.943,0,0,0,2.973.926Z" transform="translate(114.639 43.262)" fill="#f4674d"/>
        <path id="Fill_21" data-name="Fill 21" d="M5.229,2.287v3.55H4.242V2.606A1.478,1.478,0,0,0,2.672.931,1.626,1.626,0,0,0,.98,2.629V5.836H0V.12H.975V.866A2.245,2.245,0,0,1,2.845,0,2.218,2.218,0,0,1,5.229,2.287" transform="translate(124.265 43.262)" fill="#f4674d"/>
        <path id="Fill_22" data-name="Fill 22" d="M5.091.9,4.46,1.57A2.111,2.111,0,0,0,2.944.926,1.94,1.94,0,0,0,1.005,2.978,1.945,1.945,0,0,0,2.944,5.036a2.234,2.234,0,0,0,1.54-.655l.608.68a2.791,2.791,0,0,1-2.125.9A2.86,2.86,0,0,1,0,2.978,2.859,2.859,0,0,1,2.966,0,2.736,2.736,0,0,1,5.091.9" transform="translate(132.765 43.262)" fill="#f4674d"/>
        <path id="Fill_23" data-name="Fill 23" d="M.495,8.153,2.606,4.5,0,0H1.1L3.16,3.514,5.115,0H6.2L1.584,8.153Z" transform="translate(140.158 43.381)" fill="#f4674d"/>
        <path id="Fill_24" data-name="Fill 24" d="M3.984.127,3.749,1.686A2.544,2.544,0,0,0,2.8,1.5,1.17,1.17,0,0,0,1.57,2.811V5.987H0V.156H1.523V.795A1.824,1.824,0,0,1,3.166,0a2.375,2.375,0,0,1,.818.127" transform="translate(153.581 43.11)" fill="#f4674d"/>
        <path id="Fill_25" data-name="Fill 25" d="M3.028,6.137A2.877,2.877,0,0,1,0,3.087,3.148,3.148,0,0,1,.82.858,2.862,2.862,0,0,1,2.949,0,2.707,2.707,0,0,1,5,.85a3.184,3.184,0,0,1,.788,2.214,4.142,4.142,0,0,1-.031.529H1.619A1.391,1.391,0,0,0,3.118,4.8a2.328,2.328,0,0,0,1.474-.559l.921,1.012A3.516,3.516,0,0,1,3.028,6.137Zm-.09-4.783A1.26,1.26,0,0,0,1.625,2.522H4.207A1.255,1.255,0,0,0,2.938,1.355Z" transform="translate(159.759 43.111)" fill="#f4674d"/>
        <path id="Fill_26" data-name="Fill 26" d="M1.793,8.749H.222V2.919H1.793V8.748ZM1,2.01a.977.977,0,0,1-1-1A.994.994,0,0,1,1,0,1,1,0,0,1,2,1.011.992.992,0,0,1,1,2.01Z" transform="translate(168.285 40.349)" fill="#f4674d"/>
        <path id="Fill_27" data-name="Fill 27" d="M5.512,2.275V5.987H3.942V2.781c0-.849-.415-1.306-1.137-1.306A1.192,1.192,0,0,0,1.571,2.792v3.2H0V.156H1.529V.843A1.946,1.946,0,0,1,3.244,0,2.172,2.172,0,0,1,5.512,2.275" transform="translate(173.41 43.11)" fill="#f4674d"/>
        <path id="Fill_28" data-name="Fill 28" d="M2.3,5.831,0,0H1.71L3.22,4.176,4.741,0H6.4L4.116,5.831Z" transform="translate(181.34 43.267)" fill="#f4674d"/>
        <path id="Fill_29" data-name="Fill 29" d="M3.027,6.137A2.877,2.877,0,0,1,0,3.087,3.148,3.148,0,0,1,.82.858,2.86,2.86,0,0,1,2.948,0,2.707,2.707,0,0,1,4.995.85a3.184,3.184,0,0,1,.788,2.214,4.32,4.32,0,0,1-.031.529H1.618A1.391,1.391,0,0,0,3.117,4.8a2.328,2.328,0,0,0,1.474-.559l.922,1.012A3.517,3.517,0,0,1,3.027,6.137Zm-.09-4.783A1.26,1.26,0,0,0,1.625,2.522H4.206A1.255,1.255,0,0,0,2.937,1.355Z" transform="translate(189.823 43.111)" fill="#f4674d"/>
        <path id="Fill_30" data-name="Fill 30" d="M5.512,2.275V5.987H3.942V2.781c0-.849-.415-1.306-1.136-1.306A1.193,1.193,0,0,0,1.571,2.792v3.2H0V.156H1.529V.843A1.948,1.948,0,0,1,3.243,0,2.172,2.172,0,0,1,5.512,2.275" transform="translate(198.57 43.11)" fill="#f4674d"/>
        <path id="Fill_31" data-name="Fill 31" d="M2.7,3.129V5.258c0,.722.391.994.872.994a2.264,2.264,0,0,0,1.095-.379L5.241,7.1a3.222,3.222,0,0,1-1.931.613c-1.451,0-2.184-.812-2.184-2.328V3.129H0v-1.4H1.126V0H2.7V1.732H4.808v1.4Z" transform="translate(206.728 41.535)" fill="#f4674d"/>
        <path id="Fill_32" data-name="Fill 32" d="M3.028,6.137A2.877,2.877,0,0,1,0,3.087,3.148,3.148,0,0,1,.82.858,2.862,2.862,0,0,1,2.949,0,2.707,2.707,0,0,1,5,.85a3.184,3.184,0,0,1,.788,2.214,4.142,4.142,0,0,1-.031.529H1.619A1.391,1.391,0,0,0,3.118,4.8a2.328,2.328,0,0,0,1.474-.559l.921,1.012A3.516,3.516,0,0,1,3.028,6.137Zm-.09-4.783A1.26,1.26,0,0,0,1.625,2.522H4.207A1.255,1.255,0,0,0,2.938,1.355Z" transform="translate(214.17 43.111)" fill="#f4674d"/>
        <path id="Fill_33" data-name="Fill 33" d="M2.822,8.815A2.888,2.888,0,0,1,0,5.746,2.888,2.888,0,0,1,2.822,2.677a2.115,2.115,0,0,1,1.715.764V0H6.1V8.664H4.566V8.021A2.136,2.136,0,0,1,2.822,8.815ZM3.109,4.14a1.506,1.506,0,0,0-1.5,1.606,1.507,1.507,0,0,0,1.5,1.607,1.491,1.491,0,0,0,1.5-1.607A1.49,1.49,0,0,0,3.109,4.14Z" transform="translate(222.558 40.434)" fill="#f4674d"/>
        <path id="Fill_34" data-name="Fill 34" d="M25.728,13.981a7.867,7.867,0,0,0-1.472-1.148,7.161,7.161,0,0,0-2.129,1.449l-3.594,3.594a2.334,2.334,0,0,1,3.3,3.3l-3.8,3.8A7.135,7.135,0,0,1,16.2,26.269a7.178,7.178,0,0,1-8.361-1.293l-.17-.171-.02-.019a7.209,7.209,0,0,1,0-10.194L16.671,5.57a11.027,11.027,0,0,1,11.4-2.532,12.844,12.844,0,0,0-17.374.721l-6.93,6.93a12.851,12.851,0,0,0,0,18.173h0a12.85,12.85,0,0,0,18.172,0l3.792-3.792a7.834,7.834,0,0,0,0-11.089" transform="translate(0 0.724)" fill="#f4674d"/>
        <path id="Fill_35" data-name="Fill 35" d="M24.3,3.764h0a12.849,12.849,0,0,0-18.173,0L2.547,7.348A7.813,7.813,0,0,0,4.107,19.637,7.112,7.112,0,0,0,5.94,18.343l3.8-3.8a2.334,2.334,0,0,1-3.3-3.3l3.593-3.593a7.278,7.278,0,0,1,7.888-1.524,7.092,7.092,0,0,1,2.307,1.524l.171.171.019.019a7.209,7.209,0,0,1,0,10.194L11.4,27.056A11.029,11.029,0,0,1,0,29.588a12.843,12.843,0,0,0,17.374-.722l6.93-6.929a12.851,12.851,0,0,0,0-18.173" transform="translate(12.092 7.357)" fill="#6e7c7c"/>
      </g>
    </g>
  </g>
</svg>
