<svg id="Group_2" data-name="Group 2" xmlns="http://www.w3.org/2000/svg" width="50" height="50" viewBox="0 0 50 50">
  <circle id="Oval_Copy_6" data-name="Oval Copy 6" cx="25" cy="25" r="25" fill="#fff"/>
  <path id="Fill_1" data-name="Fill 1" d="M14.195,12.676H3.721A3.724,3.724,0,0,1,0,8.956V3.72A3.724,3.724,0,0,1,3.721,0H14.195a3.723,3.723,0,0,1,3.719,3.72V8.956A3.723,3.723,0,0,1,14.195,12.676Zm-7.5-8.939a.2.2,0,0,0-.2.2V8.751a.2.2,0,0,0,.282.178l4.9-2.335a.193.193,0,0,0,.111-.174.2.2,0,0,0-.108-.18l-4.9-2.48A.2.2,0,0,0,6.694,3.737Z" transform="translate(16 19)" fill="#323e48"/>
</svg>
